<?xml version="1.0" encoding="utf-8"?>
<!-- Generator: Adobe Illustrator 16.0.1, SVG Export Plug-In . SVG Version: 6.00 Build 0)  -->
<!DOCTYPE svg PUBLIC "-//W3C//DTD SVG 1.1//EN" "http://www.w3.org/Graphics/SVG/1.1/DTD/svg11.dtd">
<svg version="1.1" id="Layer_1" xmlns="http://www.w3.org/2000/svg" xmlns:xlink="http://www.w3.org/1999/xlink" x="0px" y="0px"
	 width="430.578px" height="59.87px" viewBox="0 0 430.578 59.87" enable-background="new 0 0 430.578 59.87" xml:space="preserve">
<g>
	<path fill="#515151" d="M72.94,30.449l0.15-1.05l3.84,0.09l3.51-0.09l0.15,1.05l-2.55,0.39v12.24c0,3.9-1.59,6.51-7.56,7.89
		c-5.91,0-8.01-3.18-8.01-7.95v-12.18l-2.7-0.39l0.15-1.05l4.14,0.09l4.11-0.09l0.15,1.05l-2.55,0.39v12.629
		c0,3.72,1.59,5.85,5.01,5.85c3.12,0,4.86-2.1,4.86-5.94v-12.54L72.94,30.449z"/>
	<path fill="#515151" d="M84.641,50.368l-3.45,0.09l-0.15-1.05l2.1-0.3v-10.95l-2.1,0.18l-0.15-1.05l3.6-0.93l1.29-0.09l0.15,2.52
		l4.439-2.91c3.84,0,4.47,1.29,4.47,4.89v8.34l2.28,0.3l-0.15,1.05l-3.45-0.09l-2.88,0.09l-0.15-1.05l1.5-0.3v-8.58
		c0-1.56-0.69-2.25-1.98-2.25c-1.05,0-2.1,0.66-3.12,1.35l-0.9,0.6v8.88l1.65,0.3l-0.15,1.05L84.641,50.368z"/>
	<path fill="#515151" d="M102.281,50.368l-3.45,0.09l-0.15-1.05l2.1-0.3v-10.95l-2.1,0.18l-0.15-1.05l3.6-0.93l1.5-0.12v12.87
		l2.25,0.3l-0.15,1.05L102.281,50.368z M100.781,29.729l2.16-0.15l0.84,0.15l0.15,1.68l-0.33,1.44l-2.13,0.18l-0.81-0.18l-0.18-1.68
		L100.781,29.729z"/>
	<path fill="#515151" d="M114.311,48.508l3.63-10.859l-1.38-0.3l0.15-1.05l2.64,0.09l2.49-0.09l0.15,1.05l-1.92,0.3l-4.92,12.329
		l-2.19,0.9l-5.22-13.229l-1.86-0.3l0.15-1.05l3.45,0.09l3.15-0.09l0.15,1.05l-1.98,0.3l3.27,8.79L114.311,48.508z"/>
	<path fill="#515151" d="M124.932,42.778c0,3.42,1.83,5.85,4.98,5.85c1.2,0,2.64-0.57,3.75-1.26l0.479,1.14
		c-1.439,0.99-3.33,1.83-5.25,2.37c-3.63,0-6.9-2.58-6.9-7.29c0-4.439,2.67-6.81,6.78-7.709c3.96,0,5.31,2.49,5.31,5.64v1.26
		H124.932z M130.961,41.278c0-2.31-0.45-3.9-2.76-3.9c-1.83,0-3,1.71-3.24,4.2L130.961,41.278z"/>
	<path fill="#515151" d="M140.501,40.228l3.42-4.2h2.4v3h-2.22c-0.72,0.15-2.04,1.14-2.85,2.13l-0.6,0.72v7.14l3.15,0.3l-0.15,1.14
		l-4.35-0.09l-3.36,0.09l-0.15-1.05l2.1-0.3v-10.95l-2.1,0.18l-0.15-1.05l3.6-0.93l1.2-0.09L140.501,40.228z"/>
	<path fill="#515151" d="M155.771,38.008c-0.3-0.18-1.2-0.66-2.28-0.66c-1.17,0-2.28,0.63-2.28,1.77c0,0.96,0.75,1.56,2.1,2.25
		l2.31,1.17c2.01,1.02,2.82,2.16,2.82,3.87c0,2.7-2.19,3.72-5.64,4.47c-1.83,0-3.78-0.9-4.56-1.35l-0.57-3.39h1.92l1.02,2.49
		c0.63,0.42,1.5,0.75,2.46,0.75c1.59,0,2.4-1.02,2.4-2.28c0-1.17-0.63-1.68-2.19-2.49l-2.37-1.23c-1.29-0.66-2.52-1.8-2.52-3.48
		c0-2.1,1.95-3.27,5.43-4.02c1.62,0,3.36,0.72,4.229,1.35v3h-1.59L155.771,38.008z"/>
	<path fill="#515151" d="M164.051,50.368l-3.45,0.09l-0.15-1.05l2.1-0.3v-10.95l-2.1,0.18l-0.15-1.05l3.6-0.93l1.5-0.12v12.87
		l2.25,0.3l-0.15,1.05L164.051,50.368z M162.551,29.729l2.16-0.15l0.84,0.15l0.15,1.68l-0.33,1.44l-2.13,0.18l-0.81-0.18l-0.18-1.68
		L162.551,29.729z"/>
	<path fill="#515151" d="M179.081,57.478v-3h2.58l2.97-4.53l-1.2,0.36l-5.04-12.629h-4.53v9.15c0,0.87,0.33,1.8,1.59,1.8
		c0.87,0,1.8-0.42,2.64-0.84l0.51,1.02l-3.78,2.07c-3.36,0-3.81-1.2-3.81-3.9v-8.94h-2.91v-0.51l1.05-1.05h1.95v-1.95l1.95-1.95
		h0.78v3.75h9.45l0.15,1.02l-1.98,0.3l3.33,8.79l0.24,2.07l3.72-10.859l-1.38-0.3l0.15-1.05l2.64,0.09l2.49-0.09l0.15,1.05
		l-1.92,0.3l-4.86,12.27l-3.36,7.56H179.081z"/>
	<path fill="#515151" d="M215.26,43.078c0,4.47-2.73,7.05-7.38,7.8c-3.99,0-6.69-3.09-6.69-7.17c0-4.5,2.73-7.05,7.38-7.83
		C212.56,35.878,215.26,38.998,215.26,43.078z M208.63,49.408c2.4,0,3.63-2.46,3.63-5.7c0-3.81-1.83-6.36-4.44-6.36
		c-2.43,0-3.63,2.46-3.63,5.73C204.19,46.498,205.96,49.408,208.63,49.408z"/>
	<path fill="#515151" d="M222.01,36.628h3.75v1.41h-3.75v11.07l3.45,0.21l-0.15,1.14l-4.65-0.09l-3.45,0.09l-0.15-1.05l2.1-0.3
		v-11.07h-2.64v-0.51l0.9-1.05h1.74v-0.3c0-1.8,0.57-2.97,1.65-4.2l2.52-2.85h3.78v2.4h-3.899l-0.57,0.81
		c-0.42,0.57-0.63,1.44-0.63,3.39V36.628z"/>
	<path fill="#515151" d="M247.509,50.458l-4.859-0.09l-5.04,0.09l-0.15-1.05l3.6-0.39V30.838l-4.5,0.06l-1.38,3.81h-1.17v-5.31
		l8.609,0.09l8.64-0.09v5.31h-1.17l-1.38-3.81l-4.5-0.06v18.179l3.45,0.39L247.509,50.458z"/>
	<path fill="#515151" d="M253.45,42.778c0,3.42,1.83,5.85,4.98,5.85c1.2,0,2.64-0.57,3.75-1.26l0.48,1.14
		c-1.44,0.99-3.33,1.83-5.25,2.37c-3.63,0-6.9-2.58-6.9-7.29c0-4.439,2.67-6.81,6.78-7.709c3.96,0,5.31,2.49,5.31,5.64v1.26H253.45z
		 M259.479,41.278c0-2.31-0.45-3.9-2.76-3.9c-1.83,0-3,1.71-3.24,4.2L259.479,41.278z"/>
	<path fill="#515151" d="M268.839,49.408l-0.15,1.05l-2.34-0.09l-3.09,0.09l-0.15-1.05l2.1-0.3l4.44-5.46l-4.35-5.97l-1.86-0.3
		l0.15-1.08l3.45,0.09l2.85-0.09l0.15,1.08l-1.17,0.3l2.22,3.33l0.24,0.78l2.85-4.11l-1.47-0.3l0.15-1.08l2.34,0.09l3.09-0.09
		l0.15,1.08l-2.16,0.3l-3.959,4.8l4.709,6.63l1.86,0.3l-0.15,1.05l-3.45-0.09l-2.85,0.09l-0.15-1.05l1.23-0.3l-2.67-3.87l-0.24-0.69
		l-3.18,4.56L268.839,49.408z"/>
	<path fill="#515151" d="M285.849,35.878c3.78,0,4.74,0.96,4.74,4.77v5.88c0,1.29,0.21,1.77,0.51,2.25h1.5l0.12,1.05l-3.87,0.75
		l-0.93-2.31l-3.57,2.61c-2.58,0-4.41-1.44-4.41-3.84c0-1.08,0.39-1.86,1.05-2.76l6.75-2.25v-1.5c0-1.8-0.15-2.88-1.77-2.88
		c-0.81,0-1.8,0.27-2.46,0.54l-0.51,2.37h-2.58v-2.28L285.849,35.878z M287.739,43.228l-4.35,1.8c-0.45,0.45-0.6,1.05-0.6,1.68
		c0,1.53,0.87,2.07,1.74,2.07c0.84,0,1.56-0.51,1.95-0.78l1.26-0.87V43.228z"/>
	<path fill="#515151" d="M301.869,38.008c-0.3-0.18-1.2-0.66-2.28-0.66c-1.17,0-2.28,0.63-2.28,1.77c0,0.96,0.75,1.56,2.1,2.25
		l2.31,1.17c2.01,1.02,2.82,2.16,2.82,3.87c0,2.7-2.19,3.72-5.64,4.47c-1.83,0-3.78-0.9-4.56-1.35l-0.57-3.39h1.92l1.02,2.49
		c0.63,0.42,1.5,0.75,2.46,0.75c1.59,0,2.4-1.02,2.4-2.28c0-1.17-0.63-1.68-2.19-2.49l-2.37-1.23c-1.29-0.66-2.52-1.8-2.52-3.48
		c0-2.1,1.95-3.27,5.43-4.02c1.62,0,3.36,0.72,4.23,1.35v3h-1.59L301.869,38.008z"/>
	<path fill="#515151" d="M318.039,50.368l-4.14,0.09l-0.15-1.05l2.7-0.39V30.838l-2.7-0.39l0.15-1.05l4.14,0.09l4.11-0.09l0.15,1.05
		l-2.7,0.39v18.209l7.5-0.09l2.01-4.05h1.14l-1.05,5.549L318.039,50.368z"/>
	<path fill="#515151" d="M335.198,50.368l-3.45,0.09l-0.15-1.05l2.1-0.3v-10.95l-2.1,0.18l-0.15-1.05l3.6-0.93l1.5-0.12v12.87
		l2.25,0.3l-0.15,1.05L335.198,50.368z M333.698,29.729l2.16-0.15l0.84,0.15l0.15,1.68l-0.33,1.44l-2.13,0.18l-0.81-0.18l-0.18-1.68
		L333.698,29.729z"/>
	<path fill="#515151" d="M347.168,50.878c-2.97,0-3.99-0.72-5.22-1.35V31.019l-2.1,0.06l-0.15-1.02l3.6-0.93l1.5-0.12v9.719
		l3.78-2.85c3.3,0,6.12,2.58,6.12,6.84C354.698,47.908,351.638,50.218,347.168,50.878z M348.578,38.278c-0.81,0-1.83,0.39-2.88,1.23
		l-0.9,0.72v7.95c0.66,0.75,1.71,1.2,2.97,1.2c2.4,0,3.93-2.19,3.93-5.73C351.698,40.318,350.378,38.278,348.578,38.278z"/>
	<path fill="#515151" d="M361.208,40.228l3.42-4.2h2.399v3h-2.22c-0.72,0.15-2.04,1.14-2.85,2.13l-0.6,0.72v7.14l3.149,0.3
		l-0.15,1.14l-4.35-0.09l-3.359,0.09l-0.15-1.05l2.1-0.3v-10.95l-2.1,0.18l-0.149-1.05l3.6-0.93l1.2-0.09L361.208,40.228z"/>
	<path fill="#515151" d="M373.988,35.878c3.78,0,4.74,0.96,4.74,4.77v5.88c0,1.29,0.21,1.77,0.51,2.25h1.5l0.12,1.05l-3.87,0.75
		l-0.93-2.31l-3.57,2.61c-2.58,0-4.409-1.44-4.409-3.84c0-1.08,0.39-1.86,1.05-2.76l6.749-2.25v-1.5c0-1.8-0.149-2.88-1.77-2.88
		c-0.81,0-1.8,0.27-2.46,0.54l-0.51,2.37h-2.58v-2.28L373.988,35.878z M375.877,43.228l-4.35,1.8c-0.45,0.45-0.6,1.05-0.6,1.68
		c0,1.53,0.87,2.07,1.74,2.07c0.84,0,1.56-0.51,1.949-0.78l1.26-0.87V43.228z"/>
	<path fill="#515151" d="M386.768,40.228l3.42-4.2h2.399v3h-2.22c-0.72,0.15-2.04,1.14-2.85,2.13l-0.6,0.72v7.14l3.149,0.3
		l-0.15,1.14l-4.35-0.09l-3.359,0.09l-0.15-1.05l2.1-0.3v-10.95l-2.1,0.18l-0.149-1.05l3.6-0.93l1.2-0.09L386.768,40.228z"/>
	<path fill="#515151" d="M397.687,50.368l-3.449,0.09l-0.15-1.05l2.1-0.3v-10.95l-2.1,0.18l-0.149-1.05l3.6-0.93l1.5-0.12v12.87
		l2.25,0.3l-0.15,1.05L397.687,50.368z M396.187,29.729l2.16-0.15l0.84,0.15l0.15,1.68l-0.33,1.44l-2.13,0.18l-0.81-0.18
		l-0.181-1.68L396.187,29.729z"/>
	<path fill="#515151" d="M405.427,42.778c0,3.42,1.829,5.85,4.979,5.85c1.2,0,2.64-0.57,3.75-1.26l0.479,1.14
		c-1.439,0.99-3.33,1.83-5.25,2.37c-3.629,0-6.899-2.58-6.899-7.29c0-4.439,2.67-6.81,6.78-7.709c3.959,0,5.31,2.49,5.31,5.64v1.26
		H405.427z M411.457,41.278c0-2.31-0.45-3.9-2.76-3.9c-1.83,0-3,1.71-3.24,4.2L411.457,41.278z"/>
	<path fill="#515151" d="M424.687,38.008c-0.301-0.18-1.2-0.66-2.28-0.66c-1.17,0-2.28,0.63-2.28,1.77c0,0.96,0.75,1.56,2.101,2.25
		l2.31,1.17c2.01,1.02,2.82,2.16,2.82,3.87c0,2.7-2.19,3.72-5.641,4.47c-1.829,0-3.779-0.9-4.56-1.35l-0.569-3.39h1.92l1.02,2.49
		c0.63,0.42,1.5,0.75,2.46,0.75c1.59,0,2.399-1.02,2.399-2.28c0-1.17-0.63-1.68-2.189-2.49l-2.37-1.23
		c-1.29-0.66-2.52-1.8-2.52-3.48c0-2.1,1.95-3.27,5.43-4.02c1.62,0,3.359,0.72,4.229,1.35v3h-1.59L424.687,38.008z"/>
</g>
<g>
	<g>
		<polygon fill="#515151" points="25.65,21.708 25.696,21.708 25.696,21.692 25.65,21.692 25.65,21.708 		"/>
		<path fill="#515151" d="M31.099,17.166c-1.139-0.175-2.215-0.341-3.189-0.341c-0.521,0-0.978,0.051-1.386,0.149l-0.228-6.358
			V9.562c0.449-0.188,0.994-0.275,1.686-0.275c0.889,0,1.904,0.148,2.979,0.307c0.946,0.139,1.919,0.276,2.917,0.34l0.271,7.601
			C33.126,17.477,32.099,17.321,31.099,17.166L31.099,17.166z M20.248,17.166c-1.001,0.155-2.029,0.311-3.053,0.367l0.273-7.601
			c0.998-0.063,1.97-0.201,2.916-0.34c1.075-0.158,2.092-0.307,2.98-0.307c0.691,0,1.236,0.088,1.685,0.275v1.055l-0.228,6.358
			c-0.408-0.099-0.863-0.149-1.387-0.149C22.462,16.825,21.386,16.991,20.248,17.166L20.248,17.166z M36.4,12.681v-1.445h-0.891
			V8.768h-0.604c-1.274,0-2.542-0.187-3.77-0.366c-1.119-0.164-2.178-0.32-3.154-0.32c-0.919,0-1.678,0.145-2.309,0.441
			c-0.631-0.297-1.391-0.441-2.309-0.441c-0.977,0-2.035,0.156-3.155,0.32c-1.227,0.18-2.495,0.366-3.771,0.366h-0.602v2.468h-0.892
			v1.445h0.892v1.957h-0.881v1.445h0.881v2.68h0.602c1.363,0,2.699-0.207,3.992-0.406c1.092-0.168,2.123-0.328,3.004-0.328
			c0.711,0,1.244,0.104,1.657,0.318v0.001h1.161v-0.001c0.413-0.215,0.947-0.318,1.656-0.318c0.883,0,1.914,0.16,3.006,0.328
			c1.292,0.199,2.63,0.406,3.99,0.406h0.604v-2.68h0.881v-1.445h-0.881v-1.957H36.4L36.4,12.681z"/>
		<path fill="#515151" d="M20.412,10.685c-0.06,0.009-0.118,0.018-0.178,0.026c-0.566,0.083-1.142,0.167-1.723,0.233l-0.033,0.975
			c0.643-0.07,1.273-0.163,1.896-0.255c0.013-0.003,0.025-0.004,0.038-0.007V10.685L20.412,10.685z"/>
		<path fill="#515151" d="M21.134,10.582v0.973c1.025-0.143,1.965-0.245,2.781-0.178l0.033-0.96
			C23.08,10.352,22.126,10.447,21.134,10.582L21.134,10.582z"/>
		<path fill="#515151" d="M20.412,15.094c-0.06,0.009-0.118,0.018-0.178,0.026c-0.618,0.091-1.246,0.183-1.881,0.252l-0.035,0.973
			c0.697-0.073,1.383-0.173,2.056-0.271c0.013-0.002,0.025-0.004,0.038-0.006V15.094L20.412,15.094z"/>
		<path fill="#515151" d="M21.134,14.991v0.973c0.959-0.133,1.846-0.231,2.623-0.188l0.033-0.959
			C22.964,14.773,22.067,14.864,21.134,14.991L21.134,14.991z"/>
		<path fill="#515151" d="M20.262,12.911v0.975c0.037-0.006,0.074-0.012,0.111-0.018c1.288-0.188,2.466-0.361,3.462-0.295
			l0.034-0.957C22.767,12.548,21.537,12.724,20.262,12.911L20.262,12.911z"/>
		<path fill="#515151" d="M19.54,13.015c-0.366,0.053-0.735,0.102-1.107,0.145l-0.035,0.973c0.386-0.041,0.767-0.092,1.143-0.144
			V13.015L19.54,13.015z"/>
		<path fill="#515151" d="M29.773,10.525c-0.834-0.103-1.637-0.164-2.376-0.108l0.034,0.96c0.697-0.057,1.486,0.01,2.342,0.119
			V10.525L29.773,10.525z"/>
		<path fill="#515151" d="M32.834,10.944c-0.581-0.066-1.156-0.15-1.723-0.233c-0.207-0.03-0.413-0.061-0.616-0.089v0.973
			c0.156,0.022,0.316,0.045,0.477,0.069c0.622,0.092,1.254,0.185,1.897,0.255L32.834,10.944L32.834,10.944z"/>
		<path fill="#515151" d="M29.574,12.706c-0.732-0.083-1.439-0.131-2.098-0.09l0.034,0.957c0.623-0.041,1.315,0.01,2.063,0.102
			V12.706L29.574,12.706z"/>
		<path fill="#515151" d="M32.914,13.159c-0.607-0.068-1.21-0.156-1.802-0.244c-0.274-0.039-0.546-0.079-0.815-0.117v0.973
			c0.222,0.031,0.447,0.064,0.676,0.098c0.647,0.096,1.307,0.191,1.977,0.264L32.914,13.159L32.914,13.159z"/>
		<path fill="#515151" d="M31.019,16.08c0.657,0.097,1.327,0.193,2.009,0.265l-0.034-0.973c-0.636-0.069-1.264-0.161-1.882-0.252
			c-0.03-0.005-0.062-0.009-0.093-0.014V16.08L31.019,16.08z"/>
		<path fill="#515151" d="M30.296,15.003c-0.963-0.133-1.89-0.23-2.742-0.187l0.035,0.959c0.801-0.044,1.715,0.061,2.707,0.201
			V15.003L30.296,15.003z"/>
		<path fill="#515151" d="M24.419,30.554l1.254-3.135l1.254,3.135l3.37,0.225l-2.595,2.162l0.828,3.272l-2.857-1.801l-2.857,1.801
			l0.83-3.272l-2.596-2.162L24.419,30.554L24.419,30.554z M16.785,29.441L16.785,29.441l5.445,3.96l-2.098,6.451
			c0.002,0.012,0.008,0.024,0.018,0.032s0.021,0.008,0.033,0.008l5.49-3.992l5.488,3.989c0.012,0.003,0.024,0,0.033-0.005
			c0.018-0.015,0.021-0.038,0.012-0.059l-2.088-6.427l5.443-3.956V29.44c0.025-0.009,0.041-0.034,0.033-0.06
			c-0.008-0.023-0.035-0.036-0.062-0.028v-0.002h-6.73l-2.08-6.402h-0.003c0-0.027-0.021-0.05-0.046-0.05s-0.046,0.022-0.046,0.05
			h-0.003l-2.078,6.402h-6.732l-0.002,0.004c-0.025-0.009-0.053,0.004-0.061,0.028C16.744,29.406,16.757,29.433,16.785,29.441
			L16.785,29.441z"/>
		<path fill="#515151" d="M39.189,37.533c-0.49,0.542-1.128,0.918-1.832,1.088c0.1-0.721,0.41-1.395,0.9-1.935
			c0.495-0.545,1.133-0.923,1.834-1.09C39.992,36.316,39.681,36.991,39.189,37.533L39.189,37.533z M36.554,33.298
			c-0.094-0.729,0.033-1.459,0.359-2.107c0.482,0.543,0.791,1.215,0.887,1.943c0.097,0.725-0.03,1.455-0.357,2.103
			C36.96,34.695,36.65,34.021,36.554,33.298L36.554,33.298z M38.013,27.786c-0.137-0.723-0.054-1.459,0.232-2.125
			c0.513,0.512,0.862,1.166,1,1.887c0.141,0.719,0.059,1.455-0.23,2.123C38.501,29.157,38.152,28.504,38.013,27.786L38.013,27.786z
			 M41.492,29.395c0.051,0.726-0.115,1.448-0.484,2.081c-0.367,0.633-0.912,1.133-1.567,1.445c-0.051-0.727,0.114-1.449,0.482-2.082
			C40.293,30.204,40.839,29.706,41.492,29.395L41.492,29.395z M36.158,43.083c-0.592,0.43-1.287,0.664-2.017,0.688
			c0.246-0.688,0.688-1.281,1.282-1.709c0.594-0.432,1.291-0.666,2.02-0.686C37.195,42.06,36.751,42.653,36.158,43.083
			L36.158,43.083z M34.455,38.396c0.061-0.733,0.334-1.42,0.787-1.986c0.359,0.628,0.523,1.351,0.467,2.082
			c-0.057,0.73-0.33,1.421-0.785,1.986C34.564,39.847,34.398,39.126,34.455,38.396L34.455,38.396z M32.554,43.304
			c-0.205,0.701-0.616,1.318-1.178,1.779c-0.223-0.689-0.234-1.43-0.028-2.133c0.209-0.705,0.621-1.322,1.181-1.78
			C32.75,41.856,32.761,42.599,32.554,43.304L32.554,43.304z M33.656,46.481c-0.383,0.618-0.939,1.109-1.61,1.406
			c-0.465,0.208-0.958,0.313-1.466,0.313l0,0c-0.219,0-0.436-0.019-0.648-0.059c0.383-0.619,0.938-1.106,1.607-1.405
			S32.945,46.353,33.656,46.481L33.656,46.481z M27.367,46.767c0.352-0.648,0.881-1.168,1.523-1.5
			c0.074,0.719-0.066,1.445-0.416,2.093c-0.345,0.645-0.874,1.164-1.52,1.5C26.88,48.138,27.021,47.41,27.367,46.767L27.367,46.767z
			 M19.23,47.888c-0.669-0.297-1.227-0.788-1.609-1.406c0.711-0.129,1.447-0.043,2.118,0.256c0.668,0.299,1.225,0.786,1.607,1.405
			C20.634,48.273,19.897,48.186,19.23,47.888L19.23,47.888z M18.722,43.302c-0.207-0.703-0.195-1.445,0.026-2.132
			c0.559,0.458,0.971,1.073,1.18,1.778c0.206,0.705,0.194,1.445-0.028,2.135C19.338,44.622,18.927,44.005,18.722,43.302
			L18.722,43.302z M22.386,45.267c0.643,0.332,1.172,0.852,1.521,1.496c0.348,0.647,0.488,1.375,0.414,2.097
			c-0.645-0.336-1.174-0.855-1.52-1.5C22.453,46.712,22.312,45.985,22.386,45.267L22.386,45.267z M15.119,43.083
			c-0.594-0.43-1.037-1.023-1.284-1.707c0.729,0.02,1.425,0.254,2.019,0.686c0.594,0.428,1.037,1.021,1.283,1.709
			C16.406,43.747,15.71,43.513,15.119,43.083L15.119,43.083z M16.035,36.409c0.453,0.566,0.727,1.253,0.787,1.985
			c0.057,0.731-0.109,1.452-0.469,2.083c-0.455-0.565-0.729-1.256-0.785-1.987C15.511,37.76,15.675,37.037,16.035,36.409
			L16.035,36.409z M12.087,37.533c-0.49-0.542-0.803-1.217-0.902-1.937c0.702,0.167,1.34,0.545,1.833,1.09
			c0.491,0.54,0.803,1.214,0.902,1.935C13.215,38.451,12.578,38.075,12.087,37.533L12.087,37.533z M11.837,32.921
			c-0.654-0.312-1.201-0.812-1.568-1.445C9.9,30.843,9.734,30.12,9.785,29.395c0.652,0.312,1.199,0.81,1.57,1.444
			C11.722,31.472,11.888,32.194,11.837,32.921L11.837,32.921z M12.03,27.546c0.139-0.721,0.489-1.373,1.001-1.885
			c0.287,0.666,0.369,1.402,0.232,2.123c-0.139,0.72-0.488,1.373-1.002,1.887C11.972,29.003,11.89,28.267,12.03,27.546L12.03,27.546
			z M13.476,33.132c0.096-0.727,0.405-1.398,0.887-1.941c0.326,0.648,0.453,1.379,0.359,2.105c-0.096,0.726-0.405,1.399-0.888,1.94
			C13.506,34.589,13.38,33.858,13.476,33.132L13.476,33.132z M39.191,34.045c1.123-0.338,2.064-1.077,2.65-2.085
			c0.586-1.006,0.768-2.191,0.51-3.335l-0.113-0.503l-0.494,0.147c-0.568,0.169-1.092,0.443-1.545,0.804
			c0.105-0.56,0.104-1.139-0.006-1.707c-0.221-1.148-0.863-2.16-1.81-2.85l-0.417-0.305l-0.274,0.438
			c-0.621,0.988-0.843,2.168-0.625,3.317c0.22,1.14,0.858,2.146,1.796,2.837c-0.174,0.393-0.292,0.805-0.35,1.227
			c-0.278-0.762-0.753-1.445-1.393-1.973l-0.398-0.33l-0.301,0.42c-0.678,0.949-0.971,2.113-0.822,3.273
			c0.152,1.155,0.732,2.206,1.637,2.953l0.021,0.015c-0.266,0.36-0.475,0.754-0.625,1.172c-0.113-0.804-0.438-1.569-0.955-2.219
			l-0.32-0.405l-0.381,0.351c-0.861,0.789-1.387,1.865-1.48,3.033c-0.092,1.161,0.262,2.306,0.99,3.224l0.019,0.023
			c-0.335,0.295-0.62,0.639-0.854,1.016c0.055-0.812-0.103-1.629-0.475-2.371l-0.231-0.461L32.5,40.016
			c-1.006,0.595-1.743,1.54-2.075,2.661c-0.328,1.121-0.221,2.312,0.303,3.361l0.014,0.025c-0.389,0.221-0.738,0.496-1.045,0.818
			c0.221-0.783,0.234-1.615,0.023-2.416l-0.131-0.5l-0.488,0.164c-1.106,0.375-2.022,1.148-2.581,2.178
			c-0.534,0.993-0.68,2.143-0.419,3.239c-0.147,0.102-0.302,0.207-0.463,0.316c-0.16-0.109-0.315-0.215-0.463-0.316
			c0.261-1.097,0.116-2.246-0.42-3.241c-0.557-1.027-1.473-1.801-2.58-2.176l-0.488-0.164l-0.131,0.5
			c-0.211,0.801-0.197,1.633,0.023,2.416c-0.306-0.322-0.655-0.598-1.044-0.818l0.013-0.025c0.524-1.049,0.632-2.24,0.304-3.361
			c-0.333-1.121-1.07-2.066-2.076-2.661l-0.443-0.265l-0.231,0.461c-0.373,0.742-0.529,1.559-0.475,2.371
			c-0.234-0.379-0.52-0.721-0.854-1.016l0.018-0.023c0.73-0.918,1.082-2.062,0.99-3.227c-0.094-1.165-0.619-2.241-1.48-3.03
			l-0.381-0.351l-0.32,0.405c-0.518,0.649-0.841,1.415-0.955,2.219c-0.149-0.418-0.358-0.812-0.624-1.172l0.021-0.015
			c0.903-0.747,1.484-1.798,1.636-2.953c0.149-1.16-0.143-2.324-0.822-3.273l-0.301-0.42l-0.397,0.33
			c-0.641,0.527-1.115,1.211-1.393,1.975c-0.058-0.424-0.175-0.836-0.351-1.229c0.938-0.691,1.576-1.697,1.796-2.838
			c0.218-1.15-0.004-2.328-0.625-3.316l-0.274-0.438l-0.417,0.305c-0.946,0.689-1.589,1.701-1.81,2.848
			c-0.109,0.57-0.111,1.148-0.006,1.709c-0.453-0.36-0.977-0.635-1.544-0.804L9.04,28.122l-0.113,0.503
			c-0.258,1.144-0.077,2.329,0.509,3.335c0.586,1.008,1.527,1.747,2.65,2.085l0.436,0.13c0.045,0.366,0.137,0.727,0.269,1.074
			c-0.622-0.398-1.333-0.641-2.083-0.701l-0.514-0.042l-0.008,0.517c-0.016,1.172,0.406,2.292,1.188,3.155
			c0.781,0.865,1.855,1.395,3.023,1.492l0.453,0.038c0.119,0.351,0.283,0.684,0.484,0.993c-0.508-0.19-1.045-0.29-1.598-0.29
			c-0.195,0-0.392,0.013-0.585,0.035l-0.512,0.066l0.1,0.504c0.228,1.152,0.871,2.162,1.814,2.848
			c0.784,0.57,1.716,0.871,2.69,0.871c0.191,0,0.385-0.012,0.574-0.035l0.451-0.059c0.191,0.318,0.419,0.609,0.682,0.873
			c-0.731-0.109-1.482-0.045-2.189,0.201l-0.488,0.17l0.203,0.475c0.459,1.077,1.299,1.934,2.361,2.407
			c0.591,0.264,1.216,0.396,1.859,0.396c0.514,0,1.021-0.086,1.51-0.254l0.359-0.125c0.6,0.51,1.277,1.018,2.209,1.656
			c-0.426,0.279-0.895,0.586-1.42,0.922l0.905,0.562c0.512-0.33,0.965-0.627,1.378-0.902c0.413,0.275,0.866,0.572,1.378,0.902
			l0.905-0.562c-0.524-0.336-0.994-0.643-1.418-0.922c0.93-0.639,1.607-1.146,2.207-1.656l0.361,0.125
			c0.488,0.168,0.994,0.254,1.508,0.254l0,0c0.645,0,1.27-0.133,1.859-0.395c1.064-0.476,1.902-1.332,2.361-2.409l0.203-0.475
			l-0.488-0.17c-0.707-0.246-1.458-0.311-2.188-0.199c0.262-0.264,0.49-0.557,0.681-0.875l0.451,0.059
			c0.19,0.023,0.383,0.035,0.574,0.035c0.002,0,0.002,0,0.002,0c0.973,0,1.904-0.301,2.689-0.871
			c0.942-0.686,1.587-1.695,1.813-2.848l0.1-0.504l-0.512-0.066c-0.193-0.022-0.391-0.035-0.585-0.035c-0.552,0-1.09,0.1-1.598,0.29
			c0.201-0.31,0.365-0.643,0.486-0.993l0.451-0.038c1.169-0.098,2.242-0.627,3.022-1.492c0.782-0.863,1.204-1.983,1.188-3.155
			l-0.008-0.517l-0.514,0.042c-0.749,0.061-1.461,0.303-2.083,0.701c0.133-0.348,0.224-0.708,0.27-1.074L39.191,34.045
			L39.191,34.045z"/>
		<path fill="#515151" d="M39.315,44.226c-0.981,1.436-2.104,2.768-3.458,4.063c-4.178,3.837-8.867,5.956-10.188,6.507
			c-1.321-0.551-6.011-2.67-10.188-6.507c-1.354-1.296-2.477-2.628-3.458-4.063c-4.744-6.946-5.366-15.002-5.37-21.261l0.005-0.001
			l19.017-1.057l19.013,1.056C44.681,29.223,44.059,37.279,39.315,44.226L39.315,44.226z M7.666,6.8
			c3.535-0.392,11.483-1.184,18.008-1.184c6.523,0,14.471,0.792,18.007,1.184l0.989,13.93H25.673H6.676L7.666,6.8L7.666,6.8z
			 M46.615,5.189l-0.844-0.106c-0.112-0.014-11.344-1.411-20.092-1.412c-0.002,0-0.004,0-0.006,0s-0.005,0-0.007,0
			C16.919,3.672,5.689,5.069,5.576,5.083L4.732,5.189v15.54H4.724v2.169c0,6.546,0.648,15.008,5.707,22.415
			c1.043,1.525,2.228,2.933,3.646,4.302l-0.001,0.002c0.01,0.008,0.019,0.016,0.028,0.023c2.744,2.641,6.371,5.132,11.559,8.022
			v0.008c0.002-0.004,0.003-0.004,0.005-0.004s0.003,0,0.005,0.004v-0.008c5.188-2.891,8.814-5.382,11.559-8.022
			c0.01-0.008,0.019-0.016,0.027-0.023v-0.002c1.419-1.369,2.604-2.776,3.646-4.302c5.059-7.407,5.707-15.869,5.707-22.415V22.59
			l0.002-0.001V5.189L46.615,5.189z"/>
	</g>
	<g>
		<path fill="#515151" d="M76.665,20.745l-1.88,0.06l-0.1-0.7l0.98-0.2v-5.721c0-1.04-0.48-1.5-1.28-1.5c-0.6,0-1.38,0.44-2.12,0.9
			l-0.601,0.38v5.941l1.101,0.2l-0.1,0.7l-1.9-0.06l-2.101,0.06l-0.1-0.7l1.2-0.2V7.662l-0.72,0.12l-4.061-0.06v12.123l2.3,0.26
			l-0.1,0.7l-3.24-0.06l-3.361,0.06l-0.1-0.7l2.4-0.26V7.722l-3,0.06l-0.92,2.5h-0.78V6.742l5.741,0.04l4.921-0.04l2.141-0.24h0.68
			v6.481l2.921-1.9c2.561,0,2.98,0.96,2.98,3.501v5.321l1.5,0.2l-0.1,0.7L76.665,20.745z"/>
		<path fill="#515151" d="M81.86,15.684c0,2.28,1.22,3.901,3.321,3.901c0.8,0,1.76-0.38,2.5-0.84l0.32,0.76
			c-0.96,0.66-2.22,1.22-3.5,1.581c-2.42,0-4.601-1.721-4.601-4.861c0-2.96,1.78-4.541,4.521-5.141c2.641,0,3.541,1.661,3.541,3.761
			v0.84H81.86z M85.881,14.684c0-1.541-0.3-2.601-1.841-2.601c-1.22,0-2,1.14-2.16,2.8L85.881,14.684z"/>
		<path fill="#515151" d="M101.782,7.462l0.1-0.7l2.561,0.06l2.34-0.06l0.1,0.7l-1.701,0.26v8.162c0,2.601-1.06,4.341-5.041,5.261
			c-3.94,0-5.341-2.12-5.341-5.301V7.722L93,7.462l0.1-0.7l2.761,0.06l2.741-0.06l0.1,0.7L97,7.722v8.422
			c0,2.48,1.061,3.901,3.341,3.901c2.081,0,3.241-1.4,3.241-3.961V7.722L101.782,7.462z"/>
		<path fill="#515151" d="M109.581,20.745l-2.3,0.06l-0.1-0.7l1.4-0.2v-7.301l-1.4,0.12l-0.1-0.7l2.4-0.62l0.86-0.06l0.1,1.68
			l2.96-1.94c2.561,0,2.981,0.86,2.981,3.261v5.561l1.52,0.2l-0.1,0.7l-2.3-0.06l-1.92,0.06l-0.1-0.7l1-0.2v-5.721
			c0-1.04-0.46-1.5-1.32-1.5c-0.7,0-1.4,0.44-2.081,0.9l-0.6,0.4v5.921l1.1,0.2l-0.1,0.7L109.581,20.745z"/>
		<path fill="#515151" d="M121.041,20.745l-2.3,0.06l-0.1-0.7l1.4-0.2v-7.301l-1.4,0.12l-0.1-0.7l2.4-0.62l1-0.08v8.582l1.5,0.2
			l-0.1,0.7L121.041,20.745z M120.041,6.982l1.44-0.1l0.561,0.1l0.1,1.12l-0.22,0.96l-1.42,0.12l-0.54-0.12l-0.12-1.12
			L120.041,6.982z"/>
		<path fill="#515151" d="M129.061,19.505l2.42-7.242l-0.92-0.2l0.1-0.7l1.76,0.06l1.66-0.06l0.1,0.7l-1.28,0.2l-3.281,8.222
			l-1.46,0.601l-3.48-8.822l-1.24-0.2l0.1-0.7l2.3,0.06l2.101-0.06l0.1,0.7l-1.32,0.2l2.18,5.861L129.061,19.505z"/>
		<path fill="#515151" d="M136.141,15.684c0,2.28,1.22,3.901,3.321,3.901c0.8,0,1.76-0.38,2.5-0.84l0.32,0.76
			c-0.96,0.66-2.22,1.22-3.5,1.581c-2.42,0-4.601-1.721-4.601-4.861c0-2.96,1.78-4.541,4.521-5.141c2.641,0,3.541,1.661,3.541,3.761
			v0.84H136.141z M140.162,14.684c0-1.541-0.3-2.601-1.841-2.601c-1.22,0-2,1.14-2.16,2.8L140.162,14.684z"/>
		<path fill="#515151" d="M146.721,13.984l2.28-2.801h1.601v2h-1.48c-0.48,0.1-1.36,0.76-1.9,1.42l-0.4,0.48v4.761l2.101,0.2
			l-0.1,0.76l-2.901-0.06l-2.24,0.06l-0.1-0.7l1.4-0.2v-7.301l-1.4,0.12l-0.1-0.7l2.4-0.62l0.8-0.06L146.721,13.984z"/>
		<path fill="#515151" d="M156.901,12.503c-0.2-0.12-0.8-0.44-1.521-0.44c-0.78,0-1.521,0.42-1.521,1.18c0,0.64,0.5,1.04,1.4,1.5
			l1.541,0.78c1.34,0.68,1.88,1.44,1.88,2.581c0,1.8-1.46,2.48-3.761,2.981c-1.22,0-2.521-0.601-3.041-0.9l-0.38-2.261h1.28
			l0.68,1.661c0.42,0.28,1,0.5,1.64,0.5c1.061,0,1.601-0.68,1.601-1.521c0-0.78-0.42-1.12-1.46-1.66l-1.58-0.82
			c-0.86-0.44-1.681-1.2-1.681-2.32c0-1.4,1.3-2.181,3.621-2.681c1.08,0,2.24,0.48,2.82,0.9v2h-1.06L156.901,12.503z"/>
		<path fill="#515151" d="M162.42,20.745l-2.3,0.06l-0.1-0.7l1.4-0.2v-7.301l-1.4,0.12l-0.1-0.7l2.4-0.62l1-0.08v8.582l1.5,0.2
			l-0.1,0.7L162.42,20.745z M161.42,6.982l1.44-0.1l0.561,0.1l0.1,1.12l-0.22,0.96l-1.42,0.12l-0.54-0.12l-0.12-1.12L161.42,6.982z"
			/>
		<path fill="#515151" d="M172.341,25.486v-2h1.721l1.98-3.021l-0.8,0.24l-3.361-8.422h-3.021v6.102c0,0.58,0.22,1.2,1.06,1.2
			c0.58,0,1.2-0.28,1.76-0.56l0.34,0.68l-2.521,1.38c-2.241,0-2.541-0.8-2.541-2.601v-5.961h-1.94v-0.34l0.7-0.7h1.3v-1.3l1.3-1.3
			h0.52v2.5h6.301l0.1,0.68l-1.32,0.2l2.22,5.861l0.16,1.38l2.48-7.242l-0.92-0.2l0.1-0.7l1.76,0.06l1.66-0.06l0.1,0.7l-1.28,0.2
			l-3.241,8.182l-2.24,5.041H172.341z"/>
		<path fill="#515151" d="M194.661,15.884c0,2.98-1.82,4.701-4.921,5.201c-2.661,0-4.461-2.061-4.461-4.781
			c0-3,1.82-4.701,4.921-5.221C192.861,11.083,194.661,13.164,194.661,15.884z M190.24,20.105c1.601,0,2.42-1.64,2.42-3.801
			c0-2.541-1.22-4.241-2.96-4.241c-1.62,0-2.42,1.64-2.42,3.821C187.28,18.165,188.46,20.105,190.24,20.105z"/>
		<path fill="#515151" d="M199.16,11.583h2.501v0.94h-2.501v7.381l2.301,0.14l-0.1,0.76l-3.101-0.06l-2.3,0.06l-0.1-0.7l1.4-0.2
			v-7.381h-1.76v-0.34l0.6-0.7h1.16v-0.2c0-1.2,0.38-1.98,1.101-2.801l1.68-1.9h2.521v1.601h-2.601l-0.38,0.54
			c-0.28,0.38-0.42,0.96-0.42,2.26V11.583z"/>
		<path fill="#515151" d="M216.96,20.805l-3.24-0.06l-3.361,0.06l-0.1-0.7l2.4-0.26V7.722l-3,0.04l-0.92,2.541h-0.78V6.762
			l5.741,0.06l5.761-0.06v3.541h-0.78l-0.92-2.541l-3-0.04v12.123l2.3,0.26L216.96,20.805z"/>
		<path fill="#515151" d="M220.52,15.684c0,2.28,1.22,3.901,3.321,3.901c0.8,0,1.76-0.38,2.5-0.84l0.32,0.76
			c-0.96,0.66-2.22,1.22-3.5,1.581c-2.42,0-4.601-1.721-4.601-4.861c0-2.96,1.78-4.541,4.521-5.141c2.641,0,3.541,1.661,3.541,3.761
			v0.84H220.52z M224.541,14.684c0-1.541-0.3-2.601-1.841-2.601c-1.22,0-2,1.14-2.16,2.8L224.541,14.684z"/>
		<path fill="#515151" d="M231.18,20.105l-0.1,0.7l-1.561-0.06l-2.06,0.06l-0.1-0.7l1.4-0.2l2.96-3.641l-2.901-3.981l-1.24-0.2
			l0.1-0.72l2.301,0.06l1.9-0.06l0.1,0.72l-0.78,0.2l1.48,2.221l0.16,0.52l1.9-2.741l-0.98-0.2l0.1-0.72l1.56,0.06l2.061-0.06
			l0.1,0.72l-1.44,0.2l-2.641,3.201l3.141,4.421l1.24,0.2l-0.1,0.7l-2.3-0.06l-1.9,0.06l-0.1-0.7l0.82-0.2l-1.78-2.581l-0.16-0.46
			l-2.121,3.041L231.18,20.105z"/>
		<path fill="#515151" d="M242.52,11.083c2.521,0,3.161,0.64,3.161,3.181v3.921c0,0.86,0.14,1.18,0.34,1.5h1l0.08,0.7l-2.581,0.5
			l-0.62-1.541l-2.381,1.741c-1.72,0-2.94-0.96-2.94-2.561c0-0.72,0.26-1.241,0.7-1.841l4.501-1.5v-1c0-1.2-0.1-1.92-1.18-1.92
			c-0.54,0-1.2,0.18-1.641,0.36l-0.34,1.58h-1.72v-1.52L242.52,11.083z M243.78,15.984l-2.901,1.2c-0.3,0.3-0.4,0.7-0.4,1.12
			c0,1.02,0.58,1.38,1.16,1.38c0.56,0,1.041-0.34,1.3-0.52l0.84-0.581V15.984z"/>
		<path fill="#515151" d="M253.3,12.503c-0.2-0.12-0.8-0.44-1.521-0.44c-0.78,0-1.521,0.42-1.521,1.18c0,0.64,0.5,1.04,1.4,1.5
			l1.541,0.78c1.34,0.68,1.88,1.44,1.88,2.581c0,1.8-1.46,2.48-3.761,2.981c-1.22,0-2.521-0.601-3.041-0.9l-0.38-2.261h1.28
			l0.68,1.661c0.42,0.28,1,0.5,1.64,0.5c1.061,0,1.601-0.68,1.601-1.521c0-0.78-0.42-1.12-1.46-1.66l-1.58-0.82
			c-0.86-0.44-1.681-1.2-1.681-2.32c0-1.4,1.3-2.181,3.621-2.681c1.08,0,2.24,0.48,2.82,0.9v2h-1.06L253.3,12.503z"/>
		<path fill="#515151" d="M265.159,11.083c2.521,0,3.161,0.64,3.161,3.181v3.921c0,0.86,0.14,1.18,0.34,1.5h1l0.08,0.7l-2.581,0.5
			l-0.62-1.541l-2.381,1.741c-1.72,0-2.94-0.96-2.94-2.561c0-0.72,0.26-1.241,0.7-1.841l4.501-1.5v-1c0-1.2-0.1-1.92-1.18-1.92
			c-0.54,0-1.2,0.18-1.641,0.36l-0.34,1.58h-1.72v-1.52L265.159,11.083z M266.419,15.984l-2.901,1.2c-0.3,0.3-0.4,0.7-0.4,1.12
			c0,1.02,0.58,1.38,1.16,1.38c0.56,0,1.041-0.34,1.3-0.52l0.84-0.581V15.984z"/>
		<path fill="#515151" d="M269.639,12.523v-0.34l0.7-0.7h1.3v-1.3l1.3-1.3h0.52v2.74h3.021v0.9h-3v5.861c0,0.58,0.22,1.2,1.06,1.2
			c0.58,0,1.021-0.2,1.581-0.48l0.34,0.68l-2.34,1.3c-2.241,0-2.541-0.8-2.541-2.601v-5.961H269.639z"/>
		<path fill="#515151" d="M284.919,16.104l-1.3,3.741l1.74,0.26l-0.1,0.7l-2.4-0.06l-2.14,0.06l-0.1-0.7l1.56-0.22l4.961-12.962
			l1.201-0.34l5.221,13.303l1.561,0.22l-0.1,0.7l-2.761-0.06l-2.64,0.06l-0.1-0.7l1.7-0.26l-1.36-3.741H284.919z M287.58,9.883
			l-0.14-1.08l-2.201,6.361h4.261L287.58,9.883z"/>
		<path fill="#515151" d="M303.62,18.185c0,0.86,0.1,1.18,0.24,1.5h1l0.08,0.7l-2.581,0.5l-0.56-1.621l-2.9,1.821
			c-2.641,0-3.081-0.94-3.081-3.261v-5.221l-1.4,0.1l-0.1-0.78l2.4-0.52l1-0.08v6.661c0,1.041,0.44,1.5,1.42,1.5
			c0.62,0,1.42-0.5,2.181-1l0.4-0.26v-5.621l-1.2,0.1l-0.1-0.78l2.201-0.52l1-0.08V18.185z"/>
		<path fill="#515151" d="M311.239,12.503c-0.2-0.12-0.8-0.44-1.521-0.44c-0.78,0-1.521,0.42-1.521,1.18c0,0.64,0.5,1.04,1.4,1.5
			l1.541,0.78c1.34,0.68,1.88,1.44,1.88,2.581c0,1.8-1.46,2.48-3.761,2.981c-1.22,0-2.521-0.601-3.041-0.9l-0.38-2.261h1.28
			l0.68,1.661c0.42,0.28,1,0.5,1.64,0.5c1.061,0,1.601-0.68,1.601-1.521c0-0.78-0.42-1.12-1.46-1.66l-1.58-0.82
			c-0.86-0.44-1.681-1.2-1.681-2.32c0-1.4,1.3-2.181,3.621-2.681c1.08,0,2.24,0.48,2.82,0.9v2h-1.06L311.239,12.503z"/>
		<path fill="#515151" d="M313.658,12.523v-0.34l0.7-0.7h1.3v-1.3l1.3-1.3h0.52v2.74h3.021v0.9h-3v5.861c0,0.58,0.22,1.2,1.06,1.2
			c0.58,0,1.021-0.2,1.581-0.48l0.34,0.68l-2.34,1.3c-2.241,0-2.541-0.8-2.541-2.601v-5.961H313.658z"/>
		<path fill="#515151" d="M324.038,20.745l-2.3,0.06l-0.1-0.7l1.4-0.2v-7.301l-1.4,0.12l-0.1-0.7l2.4-0.62l1-0.08v8.582l1.5,0.2
			l-0.1,0.7L324.038,20.745z M323.038,6.982l1.44-0.1l0.561,0.1l0.1,1.12l-0.22,0.96l-1.42,0.12l-0.54-0.12l-0.12-1.12
			L323.038,6.982z"/>
		<path fill="#515151" d="M329.738,20.745l-2.3,0.06l-0.1-0.7l1.4-0.2v-7.301l-1.4,0.12l-0.1-0.7l2.4-0.62l0.86-0.06l0.1,1.68
			l2.96-1.94c2.561,0,2.981,0.86,2.981,3.261v5.561l1.52,0.2l-0.1,0.7l-2.3-0.06l-1.92,0.06l-0.1-0.7l1-0.2v-5.721
			c0-1.04-0.46-1.5-1.32-1.5c-0.7,0-1.4,0.44-2.081,0.9l-0.6,0.4v5.921l1.1,0.2l-0.1,0.7L329.738,20.745z"/>
	</g>
</g>
</svg>
